/* XPM */
static char * bottom_right_active_xpm[] = {
"28 28 2 1",
" 	c None",
".	c #FB65B0",
"                    ........",
"                    ........",
"                    ........",
"                    ........",
"                    ........",
"                    ........",
"                    ........",
"                    ........",
"                    ........",
"                    ........",
"                    ........",
"                    ........",
"                    ........",
"                    ........",
"                    ........",
"                    ........",
"                    ........",
"                    ........",
"                    ........",
"                    ........",
"............................",
"............................",
"............................",
"............................",
"........................... ",
"........................... ",
"..........................  ",
"........................    "};
